{
  "asset": {
    "version": "2.0"
  },
  "scene": 0,
  "scenes": [
    {
      "nodes": [
        0,
        2
      ]
    }
  ],
  "nodes": [
    {
      "name": "Root",
      "children": [
        1
      ]
    },
    {
      "name": "Child",
      "translation": [
        0,
        1,
        0
      ]
    },
    {
      "name": "Mesh",
      "translation": [
        5,
        0,
        0
      ],
      "mesh": 0,
      "skin": 0
    }
  ],
  "buffers": [
    {
      "uri": "fixture.bin",
      "byteLength": 416
    }
  ],
  "bufferViews": [
    {
      "buffer": 0,
      "byteOffset": 0,
      "byteLength": 36
    },
    {
      "buffer": 0,
      "byteOffset": 36,
      "byteLength": 36
    },
    {
      "buffer": 0,
      "byteOffset": 72,
      "byteLength": 24
    },
    {
      "buffer": 0,
      "byteOffset": 96,
      "byteLength": 12
    },
    {
      "buffer": 0,
      "byteOffset": 108,
      "byteLength": 24
    },
    {
      "buffer": 0,
      "byteOffset": 132,
      "byteLength": 48
    },
    {
      "buffer": 0,
      "byteOffset": 180,
      "byteLength": 12
    },
    {
      "buffer": 0,
      "byteOffset": 192,
      "byteLength": 24
    },
    {
      "buffer": 0,
      "byteOffset": 216,
      "byteLength": 6
    },
    {
      "buffer": 0,
      "byteOffset": 224,
      "byteLength": 128
    },
    {
      "buffer": 0,
      "byteOffset": 352,
      "byteLength": 8
    },
    {
      "buffer": 0,
      "byteOffset": 360,
      "byteLength": 24
    },
    {
      "buffer": 0,
      "byteOffset": 384,
      "byteLength": 32
    }
  ],
  "accessors": [
    {
      "bufferView": 0,
      "componentType": 5126,
      "count": 3,
      "type": "VEC3",
      "min": [
        0,
        0,
        0
      ],
      "max": [
        1,
        1,
        0
      ]
    },
    {
      "bufferView": 1,
      "componentType": 5126,
      "count": 3,
      "type": "VEC3"
    },
    {
      "bufferView": 2,
      "componentType": 5126,
      "count": 3,
      "type": "VEC2"
    },
    {
      "bufferView": 3,
      "componentType": 5121,
      "count": 3,
      "type": "VEC4"
    },
    {
      "bufferView": 4,
      "componentType": 5123,
      "count": 3,
      "type": "VEC4"
    },
    {
      "bufferView": 5,
      "componentType": 5126,
      "count": 3,
      "type": "VEC4"
    },
    {
      "bufferView": 6,
      "componentType": 5121,
      "normalized": true,
      "count": 3,
      "type": "VEC4"
    },
    {
      "bufferView": 7,
      "componentType": 5123,
      "normalized": true,
      "count": 3,
      "type": "VEC4"
    },
    {
      "bufferView": 8,
      "componentType": 5123,
      "count": 3,
      "type": "SCALAR"
    },
    {
      "bufferView": 9,
      "componentType": 5126,
      "count": 2,
      "type": "MAT4"
    },
    {
      "bufferView": 10,
      "componentType": 5126,
      "count": 2,
      "type": "SCALAR",
      "min": [
        0
      ],
      "max": [
        2
      ]
    },
    {
      "bufferView": 11,
      "componentType": 5126,
      "count": 2,
      "type": "VEC3"
    },
    {
      "bufferView": 12,
      "componentType": 5126,
      "count": 2,
      "type": "VEC4"
    }
  ],
  "meshes": [
    {
      "name": "Triangle",
      "primitives": [
        {
          "attributes": {
            "POSITION": 0,
            "NORMAL": 1,
            "TEXCOORD_0": 2,
            "JOINTS_0": 3,
            "WEIGHTS_0": 5
          },
          "indices": 8,
          "mode": 4
        }
      ]
    }
  ],
  "skins": [
    {
      "name": "Rig",
      "inverseBindMatrices": 9,
      "skeleton": 0,
      "joints": [
        0,
        1
      ]
    }
  ],
  "animations": [
    {
      "name": "Wave",
      "samplers": [
        {
          "input": 10,
          "output": 11,
          "interpolation": "LINEAR"
        },
        {
          "input": 10,
          "output": 12,
          "interpolation": "STEP"
        }
      ],
      "channels": [
        {
          "sampler": 0,
          "target": {
            "node": 1,
            "path": "translation"
          }
        },
        {
          "sampler": 1,
          "target": {
            "node": 0,
            "path": "rotation"
          }
        }
      ]
    }
  ]
}
