{
  "asset": {
    "version": "2.0",
    "generator": "NorvesLib Scripts/ConvertObjToGltf.py"
  },
  "scene": 0,
  "scenes": [
    {
      "nodes": [
        0
      ]
    }
  ],
  "nodes": [
    {
      "mesh": 0,
      "name": "Cottage_Clean"
    }
  ],
  "meshes": [
    {
      "name": "Cottage_Clean",
      "primitives": [
        {
          "attributes": {
            "POSITION": 0,
            "NORMAL": 1,
            "TEXCOORD_0": 2
          },
          "indices": 3,
          "material": 0
        }
      ]
    }
  ],
  "materials": [
    {
      "name": "Cottage_Clean",
      "normalTexture": {
        "index": 1
      },
      "pbrMetallicRoughness": {
        "baseColorTexture": {
          "index": 0
        },
        "metallicFactor": 1.0,
        "roughnessFactor": 1.0,
        "metallicRoughnessTexture": {
          "index": 2
        }
      },
      "occlusionTexture": {
        "index": 2
      }
    }
  ],
  "samplers": [
    {
      "magFilter": 9729,
      "minFilter": 9987,
      "wrapS": 10497,
      "wrapT": 10497
    }
  ],
  "textures": [
    {
      "sampler": 0,
      "source": 0
    },
    {
      "sampler": 0,
      "source": 1
    },
    {
      "sampler": 0,
      "source": 2
    }
  ],
  "images": [
    {
      "uri": "Cottage_Clean_Base_Color.png"
    },
    {
      "uri": "Cottage_Clean_Normal.png"
    },
    {
      "uri": "Cottage_Clean_ARM.png"
    }
  ],
  "accessors": [
    {
      "bufferView": 0,
      "componentType": 5126,
      "count": 6599,
      "type": "VEC3",
      "min": [
        -6.034488,
        -0.016011,
        -7.029339
      ],
      "max": [
        6.403256,
        6.737068,
        7.620825
      ]
    },
    {
      "bufferView": 1,
      "componentType": 5126,
      "count": 6599,
      "type": "VEC3"
    },
    {
      "bufferView": 2,
      "componentType": 5126,
      "count": 6599,
      "type": "VEC2"
    },
    {
      "bufferView": 3,
      "componentType": 5125,
      "count": 12843,
      "type": "SCALAR"
    }
  ],
  "bufferViews": [
    {
      "buffer": 0,
      "byteOffset": 0,
      "byteLength": 79188,
      "target": 34962
    },
    {
      "buffer": 0,
      "byteOffset": 79188,
      "byteLength": 79188,
      "target": 34962
    },
    {
      "buffer": 0,
      "byteOffset": 158376,
      "byteLength": 52792,
      "target": 34962
    },
    {
      "buffer": 0,
      "byteOffset": 211168,
      "byteLength": 51372,
      "target": 34963
    }
  ],
  "buffers": [
    {
      "uri": "Cottage_Clean.bin",
      "byteLength": 262540
    }
  ]
}
